REM DIRINDEX 1\2,1\3,1\4,1\5
REM DIRNAME folder01,folder02,folder03,folder04,folder05
TITLE ""
FILE "P1Q_t_0442-0451.mp3" MP3
  TRACK 01 AUDIO
    TITLE "3:cjc005_2228"
    INDEX 01 00:00:00
  TRACK 02 AUDIO
    TITLE "0:"
    INDEX 01 00:01:24
  TRACK 03 AUDIO
    TITLE "4:cjc005_2229"
    INDEX 01 00:01:52
  TRACK 04 AUDIO
    TITLE "0:"
    INDEX 01 00:02:73
  TRACK 05 AUDIO
    TITLE "5:cjc005_2230"
    INDEX 01 00:03:25
  TRACK 06 AUDIO
    TITLE "0:"
    INDEX 01 00:06:73
  TRACK 07 AUDIO
    TITLE "3:cjc005_2231"
    INDEX 01 00:07:51
  TRACK 08 AUDIO
    TITLE "0:"
    INDEX 01 00:08:62
  TRACK 09 AUDIO
    TITLE "4:cjc005_2232"
    INDEX 01 00:09:14
  TRACK 10 AUDIO
    TITLE "0:"
    INDEX 01 00:10:31
  TRACK 11 AUDIO
    TITLE "5:cjc005_2233"
    INDEX 01 00:10:63
  TRACK 12 AUDIO
    TITLE "0:"
    INDEX 01 00:14:31
  TRACK 13 AUDIO
    TITLE "3:cjc005_2234"
    INDEX 01 00:15:11
  TRACK 14 AUDIO
    TITLE "0:"
    INDEX 01 00:16:28
  TRACK 15 AUDIO
    TITLE "4:cjc005_2235"
    INDEX 01 00:16:55
  TRACK 16 AUDIO
    TITLE "0:"
    INDEX 01 00:18:05
  TRACK 17 AUDIO
    TITLE "5:cjc005_2236"
    INDEX 01 00:18:31
  TRACK 18 AUDIO
    TITLE "0:"
    INDEX 01 00:21:41
  TRACK 19 AUDIO
    TITLE "3:cjc005_2237"
    INDEX 01 00:22:19
  TRACK 20 AUDIO
    TITLE "0:"
    INDEX 01 00:23:28
  TRACK 21 AUDIO
    TITLE "4:cjc005_2238"
    INDEX 01 00:23:55
  TRACK 22 AUDIO
    TITLE "0:"
    INDEX 01 00:25:01
  TRACK 23 AUDIO
    TITLE "5:cjc005_2239"
    INDEX 01 00:25:25
  TRACK 24 AUDIO
    TITLE "0:"
    INDEX 01 00:29:05
  TRACK 25 AUDIO
    TITLE "3:cjc005_2240"
    INDEX 01 00:29:56
  TRACK 26 AUDIO
    TITLE "0:"
    INDEX 01 00:30:67
  TRACK 27 AUDIO
    TITLE "4:cjc005_2241"
    INDEX 01 00:31:33
  TRACK 28 AUDIO
    TITLE "0:"
    INDEX 01 00:32:70
  TRACK 29 AUDIO
    TITLE "5:cjc005_2242"
    INDEX 01 00:33:19
  TRACK 30 AUDIO
    TITLE "0:"
    INDEX 01 00:37:67
  TRACK 31 AUDIO
    TITLE "3:cjc005_2243"
    INDEX 01 00:38:49
  TRACK 32 AUDIO
    TITLE "0:"
    INDEX 01 00:39:70
  TRACK 33 AUDIO
    TITLE "4:cjc005_2244"
    INDEX 01 00:40:19
  TRACK 34 AUDIO
    TITLE "0:"
    INDEX 01 00:41:44
  TRACK 35 AUDIO
    TITLE "5:cjc005_2245"
    INDEX 01 00:41:69
  TRACK 36 AUDIO
    TITLE "0:"
    INDEX 01 00:46:19
  TRACK 37 AUDIO
    TITLE "3:cjc005_2246"
    INDEX 01 00:46:68
  TRACK 38 AUDIO
    TITLE "0:"
    INDEX 01 00:48:16
  TRACK 39 AUDIO
    TITLE "4:cjc005_2247"
    INDEX 01 00:48:40
  TRACK 40 AUDIO
    TITLE "0:"
    INDEX 01 00:50:07
  TRACK 41 AUDIO
    TITLE "5:cjc005_2248"
    INDEX 01 00:50:35
  TRACK 42 AUDIO
    TITLE "0:"
    INDEX 01 00:55:10
  TRACK 43 AUDIO
    TITLE "3:cjc005_2249"
    INDEX 01 00:55:61
  TRACK 44 AUDIO
    TITLE "0:"
    INDEX 01 00:57:01
  TRACK 45 AUDIO
    TITLE "4:cjc005_2250"
    INDEX 01 00:57:31
  TRACK 46 AUDIO
    TITLE "0:"
    INDEX 01 00:58:73
  TRACK 47 AUDIO
    TITLE "5:cjc005_2251"
    INDEX 01 00:59:24
  TRACK 48 AUDIO
    TITLE "0:"
    INDEX 01 01:03:31
  TRACK 49 AUDIO
    TITLE "3:cjc005_2252"
    INDEX 01 01:04:07
  TRACK 50 AUDIO
    TITLE "0:"
    INDEX 01 01:05:21
  TRACK 51 AUDIO
    TITLE "4:cjc005_2253"
    INDEX 01 01:05:44
  TRACK 52 AUDIO
    TITLE "0:"
    INDEX 01 01:07:14
  TRACK 53 AUDIO
    TITLE "5:cjc005_2254"
    INDEX 01 01:07:39
  TRACK 54 AUDIO
    TITLE "0:"
    INDEX 01 01:11:49
  TRACK 55 AUDIO
    TITLE "3:cjc005_2255"
    INDEX 01 01:12:23
  TRACK 56 AUDIO
    TITLE "0:"
    INDEX 01 01:13:53
  TRACK 57 AUDIO
    TITLE "4:cjc005_2256"
    INDEX 01 01:14:04
  TRACK 58 AUDIO
    TITLE "0:"
    INDEX 01 01:15:58
  TRACK 59 AUDIO
    TITLE "5:cjc005_2257"
    INDEX 01 01:16:09
  TRACK 60 AUDIO
    TITLE "0:"
    INDEX 01 01:20:22
